<?xml version="1.0" encoding="UTF-8" standalone="no"?>
<!-- Created with Inkscape (http://www.inkscape.org/) -->

<svg
   width="1080"
   height="1080"
   viewBox="0 0 1080 1080"
   version="1.1"
   id="svg1"
   xml:space="preserve"
   inkscape:version="1.4.2 (f4327f4, 2025-05-13)"
   sodipodi:docname="logo.svg"
   xmlns:inkscape="http://www.inkscape.org/namespaces/inkscape"
   xmlns:sodipodi="http://sodipodi.sourceforge.net/DTD/sodipodi-0.dtd"
   xmlns="http://www.w3.org/2000/svg"
   xmlns:svg="http://www.w3.org/2000/svg"><sodipodi:namedview
     id="namedview1"
     pagecolor="#ffffff"
     bordercolor="#000000"
     borderopacity="0.25"
     inkscape:showpageshadow="2"
     inkscape:pageopacity="0.0"
     inkscape:pagecheckerboard="0"
     inkscape:deskcolor="#d1d1d1"
     inkscape:document-units="px"
     inkscape:zoom="0.5283659"
     inkscape:cx="917.92449"
     inkscape:cy="623.62087"
     inkscape:window-width="1920"
     inkscape:window-height="1009"
     inkscape:window-x="1912"
     inkscape:window-y="-8"
     inkscape:window-maximized="1"
     inkscape:current-layer="layer1" /><defs
     id="defs1"><rect
       x="94.631391"
       y="607.53353"
       width="1042.8379"
       height="280.10892"
       id="rect20" /></defs><g
     inkscape:label="Warstwa 1"
     inkscape:groupmode="layer"
     id="layer1"><path
       style="display:inline;opacity:1;fill:#051d2e;fill-opacity:1;stroke:none;stroke-width:71.542;stroke-linejoin:round;paint-order:markers stroke fill"
       d="m 476.94221,564.9494 143.68976,-0.69289 c 0,0 -8.19702,-10.37175 -6.52416,-26.43123 l -14.05205,-24.42379 0.50186,-2.84387 9.03346,-0.50186 10.37175,12.37919 c 0,0 29.44238,39.64684 72.9368,44.16356 43.49442,4.51673 60.72491,-10.20446 60.72491,-10.20446 0,0 33.9591,-19.4052 25.42751,-55.20446 -8.5316,-35.79925 -40.31599,-50.85502 -40.31599,-50.85502 0,0 -7.19331,-19.07063 8.5316,-9.53531 15.72491,9.53531 28.77323,9.53531 28.77323,9.53531 0,0 32.93921,1.41203 46.3059,10.87517 l 1.53776,1.53776 -0.23658,-11.59234 -5.08644,-16.91536 -9.10827,-16.44221 c 0,0 -22.0018,-27.4431 -45.89622,-28.98086 -23.89443,-1.53776 -36.43309,1.89263 -36.43309,1.89263 0,0 -30.40033,10.76432 -36.07822,30.16375 -5.67788,19.39944 -4.73157,29.09915 -4.73157,29.09915 0,0 5.67789,22.47496 21.52864,34.30388 15.85076,11.82893 23.65785,25.07732 23.65785,25.07732 0,0 -8.98998,19.39944 -35.95993,-6.6242 C 668.57078,476.70563 667.38788,474.813 667.38788,474.813 l 12.30209,-2.77979 c 0,0 -11.71599,-21.36406 -33.29592,-33.57596 l -0.9636,-1.05322 19.11849,0.97589 c 0,0 -19.63601,-32.29296 -61.27382,-35.95993 l 0.21001,-1.43486 c 0,0 10.87361,-3.34572 29.52602,-1.92379 0,0 -21.16171,-23.25279 -62.14684,-24.50744 0,0 -4.09851,0 2.34201,-3.09479 6.44052,-3.0948 25.00929,-10.78996 25.00929,-10.78996 0,0 29.2751,-7.61153 49.09852,5.10223 0,0 18.65241,10.95725 33.70818,34.37732 l 3.68029,0.16729 c 0,0 -7.69516,-78.95911 62.89963,-73.60595 0,0 21.27782,1.42431 43.27962,32.2978 l 2.95723,2.01092 1.30118,-9.22656 c 0,0 -17.27023,-64.11277 11.35577,-82.80247 28.62599,-18.6897 56.30568,6.86077 56.30568,6.86077 l 14.94922,11.37998 c 0,0 0.66915,-7.69516 -3.34572,-16.89591 -4.01487,-9.20074 -21.24536,-35.63197 -21.24536,-35.63197 0,0 -163.27137,-206.598511 -355.31598,-87.4907 l -1.02907,4.4349 c 0,0 43.29386,26.73337 42.34755,72.6296 0,0 5.52167,42.37788 -12.37796,65.96524 -17.89963,23.58736 -34.29368,38.47583 -34.29368,38.47583 l -1.17101,-20.91078 1.50558,-0.66914 3.84758,4.51673 c 0,0 -2.50929,-24.59108 -6.52416,-29.10781 -4.01487,-4.51673 3.17844,-1.84015 3.17844,-1.84015 0,0 11.54275,7.02602 12.21189,13.71747 0.66915,6.69145 2.5093,-6.35688 2.5093,-6.35688 0,0 -2.5093,-27.43494 -16.89591,-29.94423 0,0 4.68401,-2.84387 13.80111,4.39126 0.20911,0.0418 2.25837,0.50186 2.25837,0.50186 0,0 -11.87733,-27.30948 -22.58365,-35.50651 0,0 11.29183,-0.79461 29.98606,11.58458 l 2.55112,0.62732 c 0,0 -7.10223,-32.00529 -55.8374,-46.43657 l -4.55413,-1.00546 8.36896,-0.47316 c 0,0 15.88033,1.00546 25.34347,7.86624 l -1.30118,-6.50591 c 0,0 -15.76507,-23.62172 -51.14612,-25.21094 l -1.171,-1.42193 36.40721,-51.55632 0.51278,-1.91371 -34.10692,18.94736 c 0,0 -1.89263,-9.34485 4.3767,-12.53866 6.26933,-3.19381 -8.7534,-0.35487 -8.7534,-0.35487 l -54.41305,37.61598 c 0,0 20.58233,-28.86257 9.46314,-39.86347 l -1.65605,-0.94632 c 0,0 -19.16286,44.0036 -72.39302,67.89803 l -4.02183,3.54867 c 0,0 3.78526,22.47496 -8.7534,27.67969 -12.53866,5.20472 -16.5605,6.38761 -16.5605,6.38761 l -4.96815,-7.80709 c 0,0 -27.20652,23.42127 -20.8189,44.24018 6.38762,20.81891 12.0655,21.52864 12.0655,21.52864 0,0 6.15104,7.09736 16.08734,3.78526 0,0 -7.33394,-19.63602 23.18469,-25.78706 30.51862,-6.15104 21.76522,-2.36578 21.76522,-2.36578 0,0 -13.01182,6.15104 -14.90445,22.23838 0,0 -6.62419,3.78525 -22.00179,2.1292 l -2.36579,2.36579 2.95723,5.26387 -0.17743,19.63601 c 0,0 0.11829,7.09736 15.20017,6.6242 15.08187,-0.47316 18.09825,-2.12921 18.09825,-2.12921 0,0 7.74794,-4.96815 9.9363,-11.59234 2.18835,-6.6242 7.45222,-17.86168 7.45222,-17.86168 0,0 16.32391,-5.73703 26.49679,-1.89263 l 14.2982,0.55856 -15.89219,26.93308 c 0,0 -31.6171,43.829 -36.13383,54.20075 -4.51673,10.37174 -7.36059,27.60223 -7.36059,27.60223 0,0 -3.01116,57.54647 15.39033,70.59479 l 13.71747,17.73234 c 0,0 7.19331,19.23792 -23.92193,45.83644 0,0 -1.84015,-0.50186 -25.5948,0.83643 0,0 -29.94423,5.85502 -29.27509,38.14126 l 4.34944,4.68402 163.27138,-1.67287 c 0,0 -14.72119,-20.40892 17.89963,-36.13383 l 29.907,-3.21243 19.39944,-8.16196 5.55959,5.4413 -16.20563,1.65605 c 0,0 -31.11007,15.96904 -27.4431,40.10005 z"
       id="path1" /></g><g
     inkscape:groupmode="layer"
     id="layer3"
     inkscape:label="Czerwone"
     style="display:inline"><path
       style="fill:#661f1d;fill-opacity:1;stroke:none;stroke-width:71.542;stroke-linejoin:round;paint-order:markers stroke fill"
       d="m 356.28719,553.00219 -1.30118,1.0646 -44.12189,-0.11829 14.19471,-10.52774 7.6888,-2.36578 7.21564,-0.70974 25.90535,-20.10917 4.02183,-8.16196 1.41947,-15.14102 c 0,0 11.11919,5.32302 11.59235,5.5596 0.47315,0.23657 11.71063,6.86077 11.71063,6.86077 l -4.84986,8.51683 -5.32301,4.49499 -9.22656,3.90354 c 0,0 -19.28115,14.54958 -18.92628,26.73337"
       id="path17" /><path
       style="opacity:1;fill:#661f1d;fill-opacity:1;stroke:none;stroke-width:71.542;stroke-linejoin:round;paint-order:markers stroke fill"
       d="m 429.92565,553.55019 -41.15242,0.16728 c 0,0 -0.50185,-11.37546 20.24164,-16.89591 0,0 20.24164,-20.24163 17.73234,-37.6394 -2.50929,-17.39777 -10.53903,-27.26766 -10.53903,-27.26766 0,0 -10.53903,-12.71376 -8.86617,-35.13011 1.67286,-22.41636 1.84015,-29.2751 1.84015,-29.2751 l -4.68402,1.33829 -7.02602,12.71376 -2.00744,9.20074 -0.16728,7.69517 c 0,0 -9.36803,-27.60223 -5.52045,-44.49814 3.84759,-16.89591 7.3606,-26.59851 7.3606,-26.59851 l 20.40892,-40.65056 c 0,0 7.36059,-15.22305 6.52416,-37.97398 -0.83643,-22.75093 -4.01487,-34.29368 -4.01487,-34.96283 0,-0.66914 -2.67658,-4.8513 -2.67658,-4.8513 v -7.52788 l 10.37175,7.52788 8.86617,4.18216 2.67658,-5.35316 0.16729,-18.40149 -10.53904,-18.73606 -9.03345,-10.03717 19.23791,-2.17472 13.44824,11.20704 13.72155,19.39944 6.38762,20.58232 3.07552,21.29207 -3.78526,26.73336 -6.15104,24.13101 c 0,0 -4.73157,13.72155 -4.49499,25.07732 m 0,0 -19.63601,12.30208 1.89262,1.89263 24.84075,-1.41947 45.42306,-29.80889 c 0,0 23.42127,-24.84074 29.57231,-36.43309 6.15104,-11.59234 11.82893,-31.93809 11.82893,-31.93809 0,0 3.31209,-40.6915 -1.1829,-57.01542 -4.49499,-16.32391 -17.03365,-40.45492 -17.03365,-40.45492 l -21.05548,-19.63601 c 0,0 27.03349,-3.29056 47.10784,-0.94856 20.07435,2.34201 48.70644,5.20697 100.75371,33.35981 52.04726,28.15284 72.62959,57.48857 72.62959,57.48857 0,0 20.16689,22.40441 29.7022,48.33378 9.53532,25.92937 8.86618,24.92565 8.86618,24.92565 l -15.05577,-27.26766 c 0,0 -25.09293,-35.63197 -37.30483,-47.17472 -12.21189,-11.54275 -50.01859,-40.81784 -50.01859,-40.81784 0,0 -38.98254,-24.95092 -68.31827,-31.57511 -29.33573,-6.6242 -52.16555,-7.92538 -52.16555,-7.92538 l 0.70973,3.66696 c 0,0 23.42127,8.39854 48.3803,32.17468 24.95903,23.77613 29.33573,30.28204 29.33573,30.28204 0,0 18.57141,28.15284 24.95903,46.1328 6.38762,17.97997 12.89353,44.0036 12.89353,44.0036 l 3.54868,24.36758 -9.22657,-28.98086 -19.16285,-44.59504 c 0,0 -17.86168,-30.7552 -25.43219,-39.39032 -7.57051,-8.63511 -23.89517,-25.48437 -23.89517,-25.48437 0,0 -27.18402,-20.99443 -33.20632,-21.24536 l -2.5093,0.41822 c 0,0 5.43681,19.23792 5.52045,19.57249 0.0836,0.33457 8.66727,26.02929 5.47346,50.39687 -3.19381,24.36758 -7.33393,35.72335 -7.33393,35.72335 0,0 -16.20562,32.76612 -26.85166,46.72425 -10.64603,13.95813 -38.32571,37.85256 -38.32571,37.85256 0,0 -24.36758,16.79707 -23.18469,19.87259 1.18289,3.07552 15.14102,0.70973 15.14102,0.70973 0,0 37.3794,-3.3121 58.67146,3.78526 21.29207,7.09735 45.89623,19.87259 45.89623,19.87259 0,0 27.20652,19.63601 46.84254,51.10095 19.63601,31.46494 33.83072,49.20832 33.83072,49.20832 0,0 22.47496,26.73337 59.3812,14.66787 0,0 19.63601,-6.86078 10.40945,-28.38942 l -25.07732,-21.05548 c 0,0 -30.04546,-27.20653 -13.24839,-53.46674 0,0 29.09915,-31.22836 66.24197,-12.77524 0,0 22.47496,8.28025 24.60416,26.26022 l -24.36758,-0.70974 -15.85076,-6.38762 c 0,0 14.43129,-6.6242 0,-14.66786 0,0 -25.78705,-5.67789 -32.64783,10.64603 -6.86077,16.32391 -4.25841,25.07732 -4.25841,25.07732 0,0 -2.12921,3.54867 13.01182,15.3776 15.14102,11.82892 29.33573,29.33573 29.33573,29.33573 0,0 6.86077,22.47495 -4.02184,32.41125 l -8.98998,12.30208 c 0,0 -24.131,20.81891 -54.88621,11.82892 -30.7552,-8.98998 -49.91805,-24.60416 -49.91805,-24.60416 l -28.626,-33.12098 c 0,0 -4.49499,-34.0673 -15.3776,-37.14283 l -2.60236,4.02184 c 0,0 9.46313,27.20652 -0.23658,33.35756 -9.69972,6.15104 -11.82893,5.44131 -11.82893,5.44131 0,0 -16.56049,-5.44131 -19.39943,-1.18289 0,0 24.84074,15.85075 27.4431,34.54045 2.60236,18.6897 2.60236,23.65785 2.60236,23.65785 l -86.11456,-0.23658 c 0,0 3.54868,-16.79707 41.63781,-20.10917 l 18.21654,-2.83894 -11.59234,-5.67788 -19.39944,-8.75341 c 0,0 -40.21834,-29.09915 -14.66786,-62.92987 0,0 9.46314,-21.52864 44.24017,-19.63601 l 7.09736,-0.70974 -15.61418,-7.09735 -18.45312,2.36578 c 0,0 -21.76522,3.3121 -30.51863,18.6897 -8.7534,15.3776 -9.69972,15.61418 -9.69972,15.61418 l -21.29206,5.67788 -13.48497,-28.38941 -3.54868,2.36578 -0.94631,11.59235 6.15104,20.34575 2.1292,12.77523 -1.67994,6.81191 -6.85874,8.19703 -8.36431,8.86617 -6.02231,7.52788 c 0,0 -4.51672,4.8513 -5.18587,5.52044 -0.66914,0.66915 -6.18959,7.19331 -6.18959,7.19331 l -6.02231,15.05576 0.16729,7.02603"
       id="path18" /><path
       style="opacity:1;fill:#661f1d;fill-opacity:1;stroke:none;stroke-width:71.542;stroke-linejoin:round;paint-order:markers stroke fill"
       d="m 429.86309,234.44927 c 0,0 -4.02183,-14.66786 -12.53866,-22.71153 -8.51682,-8.04367 -15.61418,-13.01182 -15.61418,-13.01182 l 16.5605,-8.04367 -27.44311,-9.93629 c 0,0 17.74339,-13.95813 18.6897,-14.19471 0.94632,-0.23658 19.39944,-14.19471 19.39944,-14.19471 l 0.47316,-15.61418 -16.79708,14.43129 -40.92807,24.36758 -49.20833,18.45312 c 0,0 6.86078,13.72155 -13.48497,29.09915 l -17.50681,6.6242 v 6.15104 l -3.31209,3.07552 -4.96815,1.18289 -0.47316,-2.83894 2.12921,-2.1292 3.07552,-2.12921 -0.23658,-3.3121 -2.36579,-0.70973 -3.54867,-0.23658 -3.54868,1.41947 -1.65605,2.83894 c 0,0 -0.94631,2.12921 -1.41947,3.3121 -0.47316,1.18289 -2.60236,5.67788 -2.60236,5.67788 l -1.41948,6.15104 -0.94631,5.20473 c 0,0 0.23658,3.3121 0.47316,4.49499 0.23658,1.18289 1.41947,6.38762 1.41947,6.38762 l 3.07552,4.73157 4.73157,4.49499 c 0,0 3.07552,-21.76522 30.99178,-25.55048 0,0 15.61418,-8.28024 31.70152,-4.73157 16.08733,3.54868 17.97996,10.40946 17.97996,10.40946 l -4.25841,0.94631 -14.43129,3.3121 c 0,0 -10.88261,5.67788 -14.43129,20.58233 l -3.54867,7.80709 -4.73157,2.36578 -5.20473,2.36579 -2.12921,5.20472 -1.18289,5.20473 11.59235,0.23658 c 0,0 12.0655,0.94631 16.32391,-16.32392 l -7.57051,-0.94631 3.54868,-9.9363 13.01181,-5.67788 25.3139,-4.25841 16.08734,-5.44131 10.88261,-8.7534 4.02183,-5.91446 -0.94631,-10.40946 0.70973,-5.4413 6.6242,-0.94631 10.88261,1.65604 2.36578,3.07552 6.15104,4.02184 z"
       id="path19" /></g><path
     style="display:inline;opacity:1;fill:#051d2e;fill-opacity:1;stroke:none;stroke-width:71.542;stroke-linejoin:round;paint-order:markers stroke fill"
     d="m 364.9223,198.13447 -22.0018,1.30119 -11.23747,4.14012 -2.12921,5.79617 0.11829,6.86078 2.48407,4.84986 c 0,0 5.32302,3.07552 14.07642,0.82802 8.75341,-2.24749 13.2484,-5.55959 13.2484,-5.55959 l 9.69971,-13.01182 -0.23657,-4.49499 z"
     id="path20" /><g
     inkscape:groupmode="layer"
     id="layer4"
     inkscape:label="Niebieskie skrzydla"
     style="display:inline;opacity:1"><g
       inkscape:groupmode="layer"
       id="layer2"
       inkscape:label="żółte"
       style="display:inline"><path
         style="fill:#ab6e12;fill-opacity:1;stroke:none;stroke-width:71.542;stroke-linejoin:round;paint-order:markers stroke fill"
         d="m 315.83227,535.96854 c 0,0 -18.80799,0.70974 -21.29207,16.32392 l -0.17743,1.41947 8.13239,-0.14786 6.62419,-10.32074 z"
         id="path2" /><path
         style="fill:#ab6e12;fill-opacity:1;stroke:none;stroke-width:71.542;stroke-linejoin:round;paint-order:markers stroke fill"
         d="m 384.67472,536.73792 c 0,0 -13.55018,7.10966 -13.63383,11.71004 -0.0836,4.60037 -0.0836,5.26951 -0.0836,5.26951 h 8.44796 l 0.16728,-7.77881 z"
         id="path3" /><path
         style="fill:#ab6e12;fill-opacity:1;stroke:none;stroke-width:71.542;stroke-linejoin:round;paint-order:markers stroke fill"
         d="m 512.48141,534.47956 c 0,0 -19.57249,4.51672 -19.9907,18.15055 l 0.0836,1.25465 8.61524,-0.16729 z"
         id="path4" /><path
         style="fill:#ab6e12;fill-opacity:1;stroke:none;stroke-width:71.542;stroke-linejoin:round;paint-order:markers stroke fill"
         d="m 500.85502,481.86803 -16.31041,2.09108 c 0,0 1.25465,8.69888 -2.00743,14.88847 -3.26209,6.1896 -5.10223,9.78625 -5.10223,9.78625 l 0.0836,0.92007 10.8736,-0.33457 17.89963,-4.2658 1.25465,-1.50557 z"
         id="path5" /><path
         style="fill:#ab6e12;fill-opacity:1;stroke:none;stroke-width:71.542;stroke-linejoin:round;paint-order:markers stroke fill"
         d="m 393.95911,447.82528 c 0,0 -10.37175,11.71004 -32.45353,10.37175 0,0 5.35316,14.88847 24.59107,25.92936 19.23792,11.0409 26.09666,14.55391 26.09666,14.55391 l 1.33829,-0.50186 -1.33829,-8.86617 -14.05205,-26.26394 z"
         id="path6" /><path
         style="fill:#ab6e12;fill-opacity:1;stroke:none;stroke-width:71.542;stroke-linejoin:round;paint-order:markers stroke fill"
         d="m 380.7435,409.8513 c 0,0 -15.39034,5.85502 -36.46841,0.33457 l 1.84015,14.88848 4.34944,14.88848 4.51673,9.53531 c 0,0 17.39777,2.5093 33.12268,-9.36803 z"
         id="path7" /><path
         style="fill:#ab6e12;fill-opacity:1;stroke:none;stroke-width:71.542;stroke-linejoin:round;paint-order:markers stroke fill"
         d="m 383.13884,370.95505 c 0,0 -18.6897,0.11829 -30.7552,-4.73157 0,0 -9.22656,13.83984 -9.10827,33.83073 l -0.47316,2.01091 c 0,0 22.0018,6.6242 36.90625,-1.53776 l 2.24749,-20.22746 z"
         id="path8" /><path
         style="fill:#ab6e12;fill-opacity:1;stroke:none;stroke-width:71.542;stroke-linejoin:round;paint-order:markers stroke fill"
         d="m 376.86951,327.42461 -11.35576,15.61418 -8.8717,13.83984 c 0,0 6.15105,5.79618 29.09916,4.96815 l 16.79707,-30.04547 0.35487,-2.95723 z"
         id="path9" /><path
         style="fill:#ab6e12;fill-opacity:1;stroke:none;stroke-width:71.542;stroke-linejoin:round;paint-order:markers stroke fill"
         d="m 413.06602,270.29091 c -0.59144,0 -7.92538,-0.59145 -7.92538,-0.59145 l -4.96815,9.10828 -3.07552,9.46313 16.67879,0.70974 z"
         id="path10" /><path
         style="fill:#ab6e12;fill-opacity:1;stroke:none;stroke-width:71.542;stroke-linejoin:round;paint-order:markers stroke fill"
         d="m 394.37632,296.66941 -11.71063,21.17377 0.47315,2.48408 24.13101,1.18289 4.84986,-11.94721 1.18289,-13.01182 z"
         id="path11" /><path
         style="fill:#e6951a;fill-opacity:1;stroke:none;stroke-width:71.542;stroke-linejoin:round;paint-order:markers stroke fill"
         d="m 352.02877,210.31827 -6.38761,1.65605 -5.91447,2.1292 -1.65605,3.3121 4.25842,1.0646 6.62419,-1.18289 4.14013,-3.54868 z"
         id="path12" /></g><path
       style="opacity:1;fill:#072f4b;fill-opacity:1;stroke:none;stroke-width:71.542;stroke-linejoin:round;paint-order:markers stroke fill"
       d="m 670.48327,362.50929 -10.37174,-38.14126 -10.53904,-24.08922 -17.39777,-33.62453 c 0,0 -41.20168,-54.44339 -51.84772,-58.7018 l 1.89263,14.19471 5.44131,16.08734 2.60236,25.55047 -0.23658,21.05549 -2.1292,12.77523 -11.35577,-11.59234 c 0,0 -8.93952,41.02123 -17.47112,47.21082 l -2.342,1.50558 -3.6803,-6.18959 -30.91963,43.58775 22.71153,2.60237 c 0,0 12.53866,-27.20653 44.0036,-29.33573 31.46494,-2.12921 23.89443,-2.12921 23.89443,-2.12921 0,0 37.14282,3.54868 47.31569,13.01182 10.17288,9.46314 10.29117,8.84212 10.29117,8.84212 z"
       id="path13" /><path
       style="fill:#072f4b;fill-opacity:1;stroke:none;stroke-width:71.542;stroke-linejoin:round;paint-order:markers stroke fill"
       d="m 772.7836,321.74673 -13.01182,-26.14192 -28.50771,-38.56229 -27.20652,-24.60417 -39.27203,-26.85165 -36.90624,-21.29207 -28.86258,-9.93629 35.2502,37.85255 c 0,0 22.23837,29.33574 28.38941,44.71334 6.15105,15.3776 9.22657,29.33573 9.22657,29.33573 0,0 8.7534,22.71153 8.51682,39.03545 -0.23658,16.32391 -0.70973,19.16285 -0.70973,19.16285 0,0 10.64603,-28.62599 42.8207,-32.64783 32.17467,-4.02183 34.30388,1.41947 34.30388,1.41947 z"
       id="path14" /><path
       style="fill:#072f4b;fill-opacity:1;stroke:none;stroke-width:71.542;stroke-linejoin:round;paint-order:markers stroke fill"
       d="m 850.7362,251.95608 c 0,0 -63.15256,-74.63266 -103.30126,-90.69214 -40.14869,-16.05948 -62.89962,-26.09665 -62.89962,-26.09665 0,0 -48.84759,-10.70632 -70.26023,-8.69889 -21.41264,2.00744 -62.56505,7.52788 -62.56505,7.52788 0,0 56.54275,1.50558 110.74349,33.28997 54.20075,31.78438 61.56134,37.13754 61.56134,37.13754 0,0 36.80297,37.13755 42.49071,52.86246 5.68773,15.7249 11.37546,35.79925 11.37546,35.79925 0,0 3.34573,-32.7881 25.42751,-41.48699 22.08179,-8.69888 29.77695,-5.01858 29.77695,-5.01858 z"
       id="path15" /><path
       style="display:inline;opacity:1;fill:#051d2e;fill-opacity:1;stroke:none;stroke-width:71.542;stroke-linejoin:round;paint-order:markers stroke fill"
       d="m 291.83086,243.40149 c -0.33458,0.0836 -7.44424,1.171 -7.44424,1.171 l -5.52045,4.43309 -2.25836,4.60037 -0.16729,3.59665 1.92379,0.66915 6.18959,-8.19703 c 0,0 5.26952,-1.00372 5.85502,-1.171 0.5855,-0.16729 4.34944,-2.76023 4.34944,-2.76023 l -1.08736,-1.7565 z"
       id="path16" /></g><path
     style="font-weight:bold;font-size:64px;line-height:0;font-family:Serif;-inkscape-font-specification:Serif;text-orientation:upright;white-space:pre;fill:#dda228;stroke:#051d2e;stroke-width:5.99864;stroke-linejoin:round;paint-order:markers stroke fill"
     d="m 111.63086,605.86899 v 11.875 q 0,3.4375 0.40625,4.34375 0.4375,0.875 1.5,1.40625 1.0625,0.53125 3.96875,0.53125 v 1.15625 H 95.818359 v -1.15625 q 2.9375,0 3.96875,-0.53125 1.062501,-0.5625 1.468751,-1.4375 0.4375,-0.875 0.4375,-4.3125 v -27.5 q 0,-3.4375 -0.4375,-4.3125 -0.40625,-0.90625 -1.468751,-1.4375 -1.0625,-0.53125 -3.96875,-0.53125 v -1.15625 h 19.687501 q 7.6875,0 11.25,1.0625 3.5625,1.0625 5.8125,3.9375 2.25,2.84375 2.25,6.6875 0,4.6875 -3.375,7.75 -2.15625,1.9375 -6.03125,2.90625 l 10.1875,14.34375 q 2,2.78125 2.84375,3.46875 1.28125,0.96875 2.96875,1.0625 v 1.15625 h -13.34375 l -13.65625,-19.3125 z m 0,-20.78125 v 18.5625 h 1.78125 q 4.34375,0 6.5,-0.78125 2.15625,-0.8125 3.375,-2.875 1.25,-2.09375 1.25,-5.4375 0,-4.84375 -2.28125,-7.15625 -2.25,-2.3125 -7.28125,-2.3125 z m 46.5,20.90625 v 11.75 q 0,3.4375 0.40625,4.34375 0.4375,0.875 1.5,1.40625 1.09375,0.53125 3.96875,0.53125 v 1.15625 h -21.53125 v -1.15625 q 2.9375,0 3.96875,-0.53125 1.0625,-0.5625 1.46875,-1.4375 0.4375,-0.875 0.4375,-4.3125 v -27.5 q 0,-3.4375 -0.4375,-4.3125 -0.40625,-0.90625 -1.46875,-1.4375 -1.0625,-0.53125 -3.96875,-0.53125 v -1.15625 h 18.46875 q 9.125,0 13.09375,3.25 3.96875,3.25 3.96875,8.125 0,4.125 -2.5625,7.0625 -2.5625,2.9375 -7.0625,4 -3.03125,0.75 -10.25,0.75 z m 0,-20.75 v 18.3125 q 1.03125,0.0625 1.5625,0.0625 3.8125,0 5.875,-2.25 2.0625,-2.28125 2.0625,-7.03125 0,-4.71875 -2.0625,-6.90625 -2.0625,-2.1875 -6.15625,-2.1875 z m 65.96875,-3.40625 v 14.9375 h -1.15625 q -2.09375,-6.125 -6.28125,-9.3125 -4.1875,-3.1875 -9.15625,-3.1875 -4.75,0 -7.90625,2.6875 -3.15625,2.65625 -4.46875,7.4375 -1.3125,4.78125 -1.3125,9.8125 0,6.09375 1.4375,10.6875 1.4375,4.59375 4.625,6.75 3.21875,2.15625 7.625,2.15625 1.53125,0 3.125,-0.3125 1.625,-0.34375 3.3125,-0.96875 v -8.8125 q 0,-2.5 -0.34375,-3.21875 -0.34375,-0.75 -1.4375,-1.34375 -1.0625,-0.59375 -2.59375,-0.59375 h -1.09375 v -1.15625 h 20.59375 v 1.15625 q -2.34375,0.15625 -3.28125,0.65625 -0.90625,0.46875 -1.40625,1.59375 -0.28125,0.59375 -0.28125,2.90625 v 8.8125 q -4.0625,1.8125 -8.46875,2.71875 -4.375,0.9375 -9.09375,0.9375 -6.03125,0 -10.03125,-1.625 -3.96875,-1.65625 -7.03125,-4.3125 -3.03125,-2.6875 -4.75,-6.03125 -2.1875,-4.3125 -2.1875,-9.65625 0,-9.5625 6.71875,-16.15625 6.71875,-6.59375 16.90625,-6.59375 3.15625,0 5.6875,0.5 1.375,0.25 4.4375,1.4375 3.09375,1.15625 3.65625,1.15625 0.875,0 1.625,-0.625 0.75,-0.65625 1.375,-2.4375 z m 25.40625,31.875 h -18.21875 v -6.46875 h 18.21875 z m 15,8.5 v 10.875 q 0,2.25 0.34375,3.0625 0.375,0.8125 1.125,1.1875 0.75,0.375 2.9375,0.375 v 1.15625 h -16.65625 v -1.15625 q 1.9375,-0.0625 2.875,-1.09375 0.625,-0.71875 0.625,-3.71875 v -30.84375 q 0,-3.09375 -0.71875,-3.9375 -0.71875,-0.875 -2.78125,-1 v -1.15625 h 12.25 v 3.84375 q 1.53125,-2.25 3.125,-3.25 2.28125,-1.46875 4.96875,-1.46875 3.21875,0 5.84375,2.03125 2.65625,2.03125 4.03125,5.625 1.375,3.5625 1.375,7.6875 0,4.4375 -1.4375,8.125 -1.40625,3.65625 -4.125,5.59375 -2.6875,1.90625 -6,1.90625 -2.40625,0 -4.5,-1.0625 -1.5625,-0.8125 -3.28125,-2.78125 z m 0,-3.15625 q 2.6875,3.8125 5.75,3.8125 1.6875,0 2.78125,-1.78125 1.625,-2.625 1.625,-10 0,-7.5625 -1.78125,-10.34375 -1.1875,-1.84375 -3.1875,-1.84375 -3.15625,0 -5.1875,4.5625 z m 49.03125,-9.53125 h -16.03125 q 0.28125,5.8125 3.09375,9.1875 2.15625,2.59375 5.1875,2.59375 1.875,0 3.40625,-1.03125 1.53125,-1.0625 3.28125,-3.78125 l 1.0625,0.6875 q -2.375,4.84375 -5.25,6.875 -2.875,2 -6.65625,2 -6.5,0 -9.84375,-5 -2.6875,-4.03125 -2.6875,-10 0,-7.3125 3.9375,-11.625 3.96875,-4.34375 9.28125,-4.34375 4.4375,0 7.6875,3.65625 3.28125,3.625 3.53125,10.78125 z m -7.6875,-2.09375 q 0,-5.03125 -0.5625,-6.90625 -0.53125,-1.875 -1.6875,-2.84375 -0.65625,-0.5625 -1.75,-0.5625 -1.625,0 -2.65625,1.59375 -1.84375,2.78125 -1.84375,7.625 v 1.09375 z m 39.75,-24.625 v 33.625 q 0,3.40625 0.1875,4.03125 0.25,1.03125 0.9375,1.53125 0.71875,0.5 2.46875,0.625 v 1.03125 l -12.34375,2.40625 v -4.625 q -2.21875,2.6875 -3.96875,3.65625 -1.71875,0.96875 -3.90625,0.96875 -5.59375,0 -8.84375,-5 -2.625,-4.0625 -2.625,-9.96875 0,-4.71875 1.625,-8.4375 1.625,-3.75 4.4375,-5.65625 2.84375,-1.90625 6.09375,-1.90625 2.09375,0 3.71875,0.8125 1.625,0.8125 3.46875,2.84375 v -8.8125 q 0,-3.34375 -0.28125,-4.03125 -0.375,-0.90625 -1.125,-1.34375 -0.75,-0.4375 -2.8125,-0.4375 v -1.3125 z m -8.75,19.8125 q -2.3125,-4.4375 -5.65625,-4.4375 -1.15625,0 -1.90625,0.625 -1.15625,0.96875 -1.90625,3.40625 -0.71875,2.4375 -0.71875,7.46875 0,5.53125 0.8125,8.1875 0.8125,2.65625 2.21875,3.84375 0.71875,0.59375 1.96875,0.59375 2.75,0 5.1875,-4.3125 z m 22.96875,-20.8125 q 2.03125,0 3.4375,1.4375 1.40625,1.40625 1.40625,3.40625 0,2 -1.4375,3.40625 -1.40625,1.40625 -3.40625,1.40625 -2,0 -3.40625,-1.40625 -1.40625,-1.40625 -1.40625,-3.40625 0,-2 1.40625,-3.40625 1.40625,-1.4375 3.40625,-1.4375 z m 4.375,14.15625 v 23.15625 q 0,3.09375 0.71875,3.96875 0.71875,0.84375 2.8125,0.96875 v 1.125 h -15.78125 v -1.125 q 1.9375,-0.0625 2.875,-1.125 0.625,-0.71875 0.625,-3.8125 v -17.0625 q 0,-3.09375 -0.71875,-3.9375 -0.71875,-0.875 -2.78125,-1 v -1.15625 z m 22.5,24.90625 q -5.34375,4.71875 -9.59375,4.71875 -2.5,0 -4.15625,-1.625 -1.65625,-1.65625 -1.65625,-4.125 0,-3.34375 2.875,-6 2.875,-2.6875 12.53125,-7.125 v -2.9375 q 0,-3.3125 -0.375,-4.15625 -0.34375,-0.875 -1.34375,-1.5 -1,-0.65625 -2.25,-0.65625 -2.03125,0 -3.34375,0.90625 -0.8125,0.5625 -0.8125,1.3125 0,0.65625 0.875,1.625 1.1875,1.34375 1.1875,2.59375 0,1.53125 -1.15625,2.625 -1.125,1.0625 -2.96875,1.0625 -1.96875,0 -3.3125,-1.1875 -1.3125,-1.1875 -1.3125,-2.78125 0,-2.25 1.78125,-4.28125 1.78125,-2.0625 4.96875,-3.15625 3.1875,-1.09375 6.625,-1.09375 4.15625,0 6.5625,1.78125 2.4375,1.75 3.15625,3.8125 0.4375,1.3125 0.4375,6.03125 v 11.34375 q 0,2 0.15625,2.53125 0.15625,0.5 0.46875,0.75 0.3125,0.25 0.71875,0.25 0.8125,0 1.65625,-1.15625 l 0.9375,0.75 q -1.5625,2.3125 -3.25,3.375 -1.65625,1.03125 -3.78125,1.03125 -2.5,0 -3.90625,-1.15625 -1.40625,-1.1875 -1.71875,-3.5625 z m 0,-2.28125 v -9.78125 q -3.78125,2.21875 -5.625,4.75 -1.21875,1.6875 -1.21875,3.40625 0,1.4375 1.03125,2.53125 0.78125,0.84375 2.1875,0.84375 1.5625,0 3.625,-1.75 z"
     id="text20"
     transform="matrix(3.3340916,0,0,3.3340916,-282.1341,-1335.0838)"
     aria-label="RPG-pedia" /></svg>
